<?xml version="1.0" encoding="utf-8"?>
<!-- Generator: Adobe Illustrator 15.0.0, SVG Export Plug-In . SVG Version: 6.00 Build 0)  -->
<!DOCTYPE svg PUBLIC "-//W3C//DTD SVG 1.1//EN" "http://www.w3.org/Graphics/SVG/1.1/DTD/svg11.dtd">
<svg version="1.1" id="レイヤー_1" xmlns="http://www.w3.org/2000/svg" xmlns:xlink="http://www.w3.org/1999/xlink" x="0px"
	 y="0px" width="993.224px" height="194.257px" viewBox="0 0 993.224 194.257" enable-background="new 0 0 993.224 194.257"
	 xml:space="preserve">
<image display="none" overflow="visible" width="2016" height="1512" xlink:href="../../../../素材/190412/IMG_1687.JPG"  transform="matrix(-0.0323 0.9995 -0.9995 -0.0323 1246.3086 -740.5376)">
</image>
<g>
	<circle fill="#363B68" cx="97.128" cy="97.128" r="97.128"/>
	<circle fill="#FFFFFF" cx="97.127" cy="27.044" r="24.986"/>
	<path fill="#FFFFFF" d="M42.849,122.162c-14.132,6.708-8.923,24.016-8.923,24.016c4.872,23.358,33.134,45.505,63.202,45.505
		c37.123,0,67.215-30.09,67.215-67.212c0-37.124-30.092-67.218-67.215-67.218c-33.901,0-61.94,25.098-66.55,57.729l43.419,0.021
		c3.731-9.105,12.683-15.521,23.131-15.521c13.8,0,24.986,11.188,24.986,24.987c0,13.8-11.186,24.984-24.986,24.984
		c-10.804,0-19.193-7.116-23.492-16.457C73.636,132.996,65.177,112.76,42.849,122.162z"/>
</g>
<g>
	<rect x="438.738" y="123.21" fill="#363B68" width="76.631" height="11.935"/>
	<polygon fill="#363B68" points="603.021,119.895 623.369,119.895 623.369,107.96 603.021,107.96 603.021,93.361 591.086,93.361 
		591.086,107.96 578.238,107.96 578.238,119.895 591.086,119.895 591.086,160.96 564.238,160.96 564.238,172.895 628.119,172.895 
		628.119,160.96 603.021,160.96 	"/>
	<polygon fill="#363B68" points="360.396,138.645 375.12,138.645 375.12,126.71 333.738,126.71 333.738,138.645 348.461,138.645 
		348.461,161.21 324.988,161.21 324.988,173.145 386.12,173.145 386.12,161.21 360.396,161.21 	"/>
	<path fill="#363B68" d="M295.558,119.895h19.158V107.96h-19.158V93.672h-11.935v14.288h-7.536V93.672h-11.935v14.288h-0.313v11.935
		h19.784v6.908h-19.784v11.935h14.262c-2.567,4.799-8.761,14.099-21.396,22.356v11.603c0,0,17.259-10.161,26.918-22.419v23.163
		h11.935v-20.7c7,11.951,21.141,19.248,21.141,19.248v-14.433c-8.837-6.628-14.151-14.972-16.298-18.818h16.827v-11.935h-21.67
		V119.895z"/>
	<path fill="#363B68" d="M258.813,141.25v-13.818c-2.653-1.414-4.608-3.925-5.811-5.848v-1.689h6.753V107.96h-6.753V93.672h-11.935
		v14.288h-16.8v11.935h16.8v1.215c-2.251,5.245-7.388,14.924-16.8,21.71v12.877c0,0,8.018-1.181,16.8-11.242v30.242h11.935v-36.773
		C255.718,140.243,258.813,141.25,258.813,141.25z"/>
	<circle fill="#363B68" cx="405.053" cy="98.896" r="6.25"/>
	<circle fill="#363B68" cx="571.553" cy="141.396" r="6.25"/>
	<path fill="#363B68" d="M391.803,93.646h-11.25v14.314h-54.314v11.935h54.314v5.501c0,0,0,17.25,10,28.5s22,17.5,29.75,18.5v-10.75
		c0,0-12.25-4.5-20.5-14s-8.5-23.75-8.5-23.75l0.066-4.001h29.75V107.96h-29.553L391.803,93.646z"/>
	<path fill="#363B68" d="M505.053,104.896c-14.25-3.75-19.5-11.5-19.5-11.5h-2.5h-10.25h-2.5c0,0-5.25,7.75-19.5,11.5
		s-19.75,3.25-19.75,3.25v10.75c0,0,13.25,2,28.25-5.5c11.378-5.689,16.711-9.938,18.625-11.658
		c1.914,1.721,7.247,5.969,18.625,11.658c15,7.5,28.25,5.5,28.25,5.5v-10.75C524.803,108.146,519.303,108.646,505.053,104.896z"/>
	<path fill="#363B68" d="M429.988,148.645h19.306l-10.556,12.815v11.935h76.631V161.46h-0.028l-10.556-12.815h19.334V136.71h-94.131
		V148.645z M463.544,148.645h26.991l10.556,12.815h-48.103L463.544,148.645z"/>
	<path fill="#363B68" d="M573.619,119.895V107.96h-14.098V93.361h-11.936v14.599h-14.598v11.935h26.865
		c-2.371,2.735-6.244,6.937-9.49,9.189c-5.067,3.518-16.932,7.75-16.932,7.75v10.314c0,0,6.904-1.979,14.154-4.957v30.703h11.935
		V135.9C567.264,129.983,573.619,119.895,573.619,119.895z"/>
	<polygon fill="#363B68" points="741.615,81.74 717.162,81.74 717.162,173.439 652.168,173.439 646.055,184.7 802.426,184.7 
		808.539,173.439 741.615,173.439 	"/>
	<polygon fill="#363B68" points="799.529,112.95 752.877,112.95 746.764,124.211 793.416,124.211 	"/>
	<polygon fill="#363B68" points="886.082,130.968 951.396,130.968 957.51,119.707 892.195,119.707 	"/>
	<rect x="909.607" y="153.906" fill="#363B68" width="24.132" height="29.828"/>
	<path fill="#363B68" d="M987.11,91.393l6.113-11.261H872.288c0.002-0.012,0.005-0.023,0.005-0.023s-6.813,0-9.817,0
		s-11.62-0.7-21.438,6.913s-11.207,13.13-11.264,17.885v78.828h24.132v-78.828h-0.012c0.107-2.724,0.563-8.063,2.471-9.971
		c2.245-2.245,4.94-3.295,8.144-3.543h45.099v8.337H886.72c0,0-12.499,0.667-19.166,7s-6.334,16.5-6.334,16.5v24.167h58.997h2.67
		h58.997v-24.167c0,0,0.333-10.167-6.334-16.5s-19.166-7-19.166-7h-22.645v-8.337H987.11z M951.384,112.229
		c0,0,11.166-0.999,11.166,9.667s0,16.333,0,16.333h-31.166h-8.497h-2.67h-8.497h-31.166c0,0,0-5.667,0-16.333
		s11.166-9.667,11.166-9.667h17.888v0.172h24.132v-0.172H951.384z"/>
	<path fill="#363B68" d="M881.22,165.896c0,2.833-0.333,8.333-5.833,8.333h-7.333l-6.5,9.5h21.333c0,0,6.999,0.167,11.833-4.5
		s5.334-11.333,5.334-11.333v-14.5H881.22C881.22,153.396,881.22,163.063,881.22,165.896z"/>
	<path fill="#363B68" d="M967.696,174.229c-5.5,0-5.833-5.5-5.833-8.333s0-12.5,0-12.5h-18.834v14.5c0,0,0.5,6.666,5.334,11.333
		s11.833,4.5,11.833,4.5h21.333l-6.5-9.5H967.696z"/>
</g>
<text transform="matrix(1 0 0 1 223.6016 61.623)" font-family="'KozGoPro-Heavy-90ms-RKSJ-H'" font-size="60.7474">総合葬祭</text>
</svg>
