<?xml version="1.0" encoding="utf-8"?>
<!-- Generator: Adobe Illustrator 15.0.0, SVG Export Plug-In  -->
<!DOCTYPE svg PUBLIC "-//W3C//DTD SVG 1.1//EN" "http://www.w3.org/Graphics/SVG/1.1/DTD/svg11.dtd" [
	<!ENTITY ns_flows "http://ns.adobe.com/Flows/1.0/">
]>
<svg version="1.1"
	 xmlns="http://www.w3.org/2000/svg" xmlns:xlink="http://www.w3.org/1999/xlink" xmlns:a="http://ns.adobe.com/AdobeSVGViewerExtensions/3.0/"
	 x="0px" y="0px" width="312px" height="42px" viewBox="0 0 312 42" enable-background="new 0 0 312 42" xml:space="preserve">
<defs>
</defs>
<path fill="#426383" d="M36.269,23.354v2.565c1.98,0,2.88-0.9,2.88-1.035V4.905c0.9-0.18,1.62-0.585,1.935-0.945l-3.87-2.834
	l-1.395,1.89H25.154l-3.06-1.44v24.794c2.52,0,2.835-1.035,2.835-1.08v-1.935H36.269z M24.929,10.395h11.339v5.31H24.929V10.395z
	 M36.269,9.314H24.929v-5.22h11.339V9.314z M24.929,16.784h11.339v5.49H24.929V16.784z M15.75,27.313
	c2.655,1.17,5.94,3.69,7.11,6.03c0.36,0.18,0.675,0.27,0.99,0.27c0.765,0,1.305-0.63,1.305-1.485c0-1.845-2.25-4.725-9.225-5.399
	L15.75,27.313z M12.149,8.864h6.525c1.215,0,1.755-0.27,2.115-0.945l-3.735-2.745l-1.935,2.61h-2.97v-6.12
	c1.395-0.135,1.8-0.45,1.89-1.08L9.315,0.18v7.605H0.54l0.315,1.08h7.47C6.66,14.309,3.825,19.529,0,23.489l0.585,0.675
	c3.645-2.745,6.57-6.12,8.73-9.99v12.645c2.475,0,2.834-0.99,2.834-1.08v-11.97c2.16,1.35,4.545,3.825,5.175,5.985
	c0.405,0.315,0.765,0.45,1.125,0.45c0.765,0,1.35-0.675,1.35-1.665c0-1.71-1.845-4.275-7.65-5.4V8.864z M29.969,33.389
	c-0.585,2.34-1.125,4.14-1.485,4.725c-0.36,0.585-0.72,0.63-1.71,0.63h-9.854c-1.89,0-1.935,0-1.935-1.035v-6.66
	c1.125-0.135,1.35-0.405,1.44-0.9l-4.32-0.405v7.919c0,2.88,0.765,3.465,4.725,3.465h9.899c4.005,0,5.265-0.585,5.265-1.8
	c0-0.45-0.225-0.54-1.62-0.99l0.045-4.95H29.969z M31.319,30.193c3.285,2.025,6.975,5.895,7.83,9.27
	c0.45,0.315,0.855,0.45,1.215,0.45c0.945,0,1.575-0.81,1.575-2.025c0-2.385-2.475-6.165-10.305-8.145L31.319,30.193z M7.155,30.418
	c-0.225,3.42-2.97,5.715-5.31,6.48c-0.765,0.36-1.395,0.99-1.395,1.71c0,0.81,0.675,1.26,1.71,1.26c2.34,0,5.939-2.43,5.939-7.334
	c0-0.675-0.045-1.35-0.18-2.115H7.155z"/>
<path fill="#426383" d="M66.015,2.34c6.975,1.62,11.879,4.905,13.814,7.425c0.27,0.09,0.54,0.135,0.765,0.135
	c0.81,0,1.35-0.54,1.35-1.395c0-2.205-3.78-6.345-15.839-6.885L66.015,2.34z M66.915,36.178c0,3.6,0.945,4.32,4.95,4.32h9.765
	c4.095,0,5.4-0.585,5.4-1.89c0-0.45-0.27-0.63-1.62-1.08l0.045-7.065h-0.45c-0.675,3.15-1.305,6.03-1.71,6.705
	c-0.36,0.675-0.855,0.72-1.665,0.72h-9.765c-1.845,0-2.025-0.135-2.025-1.665V14.625c1.395-0.225,1.665-0.495,1.755-1.08l-4.68-0.45
	V36.178z M86.039,16.739c5.22,4.86,6.839,12.419,6.884,16.919c0.45,0.54,0.9,0.765,1.305,0.765c1.08,0,1.98-1.575,1.98-3.96
	c0-3.78-2.25-9.584-9.72-14.219L86.039,16.739z M60.435,18.314c0.27,6.075-2.205,11.294-4.95,13.365
	c-0.585,0.54-0.945,1.215-0.945,1.8c0,0.495,0.36,1.305,1.35,1.305c2.655,0,6.12-4.14,6.12-10.754c0-1.71-0.225-3.645-0.765-5.76
	L60.435,18.314z"/>
<path fill="#426383" d="M123.66,11.79c1.215,0,1.71-0.27,2.115-0.945L122.22,8.1l-1.845,2.61h-1.71v-9
	c1.485-0.135,1.89-0.45,1.935-1.125l-4.815-0.405v10.53h-7.29l0.27,1.08h6.479c-1.26,6.839-3.555,13.679-7.154,18.989l0.675,0.63
	c2.97-3.33,5.31-7.155,7.02-11.385v21.914c2.475,0,2.88-0.945,2.88-1.125V18.899c1.485,1.8,3.15,4.59,3.735,6.525
	c0.405,0.405,0.81,0.54,1.215,0.54c0.72,0,1.35-0.675,1.35-1.71c0-1.575-1.53-4.095-6.3-6.21V11.79H123.66z M146.519,17.414
	l-2.025,2.655h-6.165V10.35h8.279c1.26,0,1.8-0.27,2.16-0.945l-3.825-2.79l-2.025,2.655h-4.59V1.8
	c1.44-0.135,1.845-0.495,1.935-1.125l-4.814-0.405v9h-5.49c0.585-1.665,1.125-3.42,1.53-5.175c1.125-0.045,1.44-0.315,1.53-0.9
	l-4.545-0.945c-0.63,5.625-1.935,11.609-3.555,15.119l0.72,0.36c1.53-1.89,2.834-4.5,3.959-7.379h5.85v9.719h-11.61l0.315,1.08h9.27
	c-2.34,6.3-6.525,12.464-11.79,16.83l0.585,0.675c5.76-3.735,10.259-8.685,13.229-14.489v17.639c2.52,0,2.88-1.035,2.88-1.17V22.679
	c1.979,6.165,5.445,12.195,9.674,16.02c0.315-1.35,1.485-2.34,2.79-2.88l0.09-0.45c-4.95-2.97-9.719-8.549-11.924-14.219h9.314
	c1.26,0,1.755-0.27,2.16-0.945L146.519,17.414z"/>
<path fill="#426383" d="M203.219,31.364c-0.585,1.845-1.485,4.05-2.025,5.129c-0.225,0.495-0.405,0.72-0.675,0.72
	c-0.225,0-0.45-0.18-0.81-0.45c-6.885-4.905-9.81-14.714-10.709-25.514h12.87c1.26,0,1.755-0.315,2.115-0.99l-4.095-2.835
	l-2.115,2.745h-8.865c-0.18-2.745-0.27-5.535-0.225-8.325c1.305-0.18,1.665-0.405,1.71-0.99l-4.905-0.54
	c0,3.375,0.135,6.66,0.36,9.854H162.72l0.27,1.08h22.994c1.125,12.33,4.455,22.679,12.104,28.529c1.44,1.215,3.24,2.16,4.544,2.16
	c0.945,0,1.62-0.495,1.62-1.08c0-0.54-0.405-1.305-1.44-2.61l0.855-6.794L203.219,31.364z M193.274,1.845
	c1.98,0.99,4.455,3.015,5.58,4.59c0.315,0.18,0.675,0.27,0.945,0.27c0.81,0,1.35-0.63,1.35-1.44c0-1.53-1.89-3.69-7.739-3.915
	L193.274,1.845z M182.969,20.969c1.17,0,1.71-0.27,2.07-0.945l-3.87-2.745l-1.98,2.61H163.62l0.315,1.08h8.415v14.399
	c-4.185,0.45-7.649,0.765-9.81,0.855l2.07,3.735c0.45-0.09,0.854-0.45,1.08-0.99c9.72-1.8,16.604-3.195,21.509-4.365l-0.135-0.765
	c-4.14,0.45-8.145,0.9-11.79,1.26V20.969H182.969z"/>
<path fill="#426383" d="M216.495,19.169c8.729-3.87,16.829-10.754,21.059-16.469c3.69,6.255,10.26,11.79,17.819,15.614
	c0.36-1.17,1.215-2.25,2.565-2.61l0.09-0.72c-8.145-2.835-15.209-7.605-19.709-12.734c1.215-0.18,1.71-0.36,1.845-0.9L235.125,0
	c-3.105,6.165-11.16,13.904-18.899,18.449L216.495,19.169z M241.919,16.064h-16.964l0.314,1.08h20.879
	c1.215,0,1.755-0.27,2.115-0.945l-4.14-2.88L241.919,16.064z M217.575,24.164l0.315,1.08h12.33c-1.26,3.735-3.24,8.415-5.085,12.015
	c-2.385,0.09-4.455,0.135-5.985,0.135l2.385,3.915c0.45-0.135,0.855-0.405,1.125-0.945c11.699-1.215,20.114-2.205,26.054-3.06
	c1.08,1.395,1.98,2.79,2.475,4.095c0.45,0.315,0.9,0.495,1.305,0.495c0.855,0,1.485-0.765,1.485-1.89c0-2.52-2.88-7.02-12.419-10.17
	l-0.36,0.495c2.205,1.485,4.725,3.645,6.705,5.985c-8.055,0.36-15.659,0.72-21.464,0.9c2.7-3.33,5.399-7.515,7.064-10.665
	c1.035,0.09,1.53-0.09,1.755-0.585l-2.115-0.72h21.509c1.305,0,1.8-0.315,2.16-0.945l-4.23-3.015l-2.294,2.88H217.575z"/>
<path fill="#426383" d="M306.359,38.383h-5.805V17.234h8.55c1.215,0,1.71-0.315,2.07-0.99l-3.87-2.835l-2.07,2.745h-4.68V1.935
	c1.44-0.18,1.98-0.54,2.07-1.26l-5.13-0.45v15.93h-9.27l0.27,1.08h9v21.149h-12.149l0.27,1.08h24.659c1.26,0,1.8-0.315,2.16-0.99
	l-3.96-2.88L306.359,38.383z M285.885,7.56l-1.98,1.89h-3.24V1.935c1.575-0.18,2.07-0.495,2.16-1.215l-5.085-0.45v9.18h-7.334
	l0.315,1.08h13.319c-2.61,6.48-8.459,14.31-14.084,18.179l0.495,0.54c2.565-1.395,5.04-3.285,7.334-5.445v18
	c2.565,0,2.88-1.125,2.88-1.125V21.689c2.25,1.485,4.725,4.095,5.58,6.209c0.405,0.27,0.765,0.405,1.125,0.405
	c0.81,0,1.395-0.675,1.395-1.62c0-1.755-1.935-4.455-8.1-5.669v-0.135c2.745-3.06,5.04-6.435,6.525-9.584
	c1.08-0.045,1.62-0.18,2.025-0.45L285.885,7.56z"/>
</svg>
